{
	"asset":{
		"generator":"Khronos glTF Blender I/O v5.0.21",
		"version":"2.0"
	},
	"scene":0,
	"scenes":[
		{
			"name":"Scene",
			"nodes":[
				0
			]
		}
	],
	"nodes":[
		{
			"mesh":0,
			"name":"snowman_A"
		}
	],
	"materials":[
		{
			"name":"holiday",
			"pbrMetallicRoughness":{
				"baseColorTexture":{
					"index":0
				},
				"metallicFactor":0,
				"roughnessFactor":0.5
			}
		}
	],
	"meshes":[
		{
			"name":"snowman_A",
			"primitives":[
				{
					"attributes":{
						"POSITION":0,
						"NORMAL":1,
						"TEXCOORD_0":2,
						"TEXCOORD_1":3
					},
					"indices":4,
					"material":0
				}
			]
		}
	],
	"textures":[
		{
			"sampler":0,
			"source":0
		}
	],
	"images":[
		{
			"mimeType":"image/png",
			"name":"holiday_bits_texture",
			"uri":"textures/holiday_bits_texture.png"
		}
	],
	"accessors":[
		{
			"bufferView":0,
			"componentType":5126,
			"count":1400,
			"max":[
				1.0718002319335938,
				2.0480804443359375,
				0.7464524507522583
			],
			"min":[
				-1.0956709384918213,
				-0.0006504189223051071,
				-0.6225602626800537
			],
			"type":"VEC3"
		},
		{
			"bufferView":1,
			"componentType":5126,
			"count":1400,
			"type":"VEC3"
		},
		{
			"bufferView":2,
			"componentType":5126,
			"count":1400,
			"type":"VEC2"
		},
		{
			"bufferView":3,
			"componentType":5126,
			"count":1400,
			"type":"VEC2"
		},
		{
			"bufferView":4,
			"componentType":5123,
			"count":4962,
			"type":"SCALAR"
		}
	],
	"bufferViews":[
		{
			"buffer":0,
			"byteLength":16800,
			"byteOffset":0,
			"target":34962
		},
		{
			"buffer":0,
			"byteLength":16800,
			"byteOffset":16800,
			"target":34962
		},
		{
			"buffer":0,
			"byteLength":11200,
			"byteOffset":33600,
			"target":34962
		},
		{
			"buffer":0,
			"byteLength":11200,
			"byteOffset":44800,
			"target":34962
		},
		{
			"buffer":0,
			"byteLength":9924,
			"byteOffset":56000,
			"target":34963
		}
	],
	"samplers":[
		{
			"magFilter":9729,
			"minFilter":9987
		}
	],
	"buffers":[
		{
			"byteLength":65924,
			"uri":"snowman_baked.bin"
		}
	]
}
